<svg xmlns="http://www.w3.org/2000/svg" viewBox="0 0 500 500"><g id="freepik--background-complete--inject-81"><g><path d="M453.91,401.71c-4.78-3.41-12.14-4.1-17.34-6.83-10.25-5.38-9.64-7.41-18.1-15.31-5.59-5.21-19.99-11.28-24.02-22.82-4.18-11.97-5.59-27.62-13.67-37.4l.99-.97s37.37,14.93,44.3,20.29c6.93,5.36,15.04,15.15,16.51,25.11,1.48,9.96-2.25,13.84,1.71,21.13s6.02,9.89,7.95,12.86c1.93,2.97,1.67,3.94,1.67,3.94Z" style="fill:#e6e6e6;"></path><path d="M381.16,318.98c16.86,7.65,29.82,22.31,38.53,38.4,2.09,4.1,4.2,8.15,6.6,12.07,7.11,11.78,16.17,22.37,27.17,30.72-3.78-2.62-7.34-5.55-10.7-8.7-10.08-9.51-17.8-21.29-23.94-33.62-8.58-16.02-21.27-30.57-37.66-38.86h0Z" style="fill:#e0e0e0;"></path><path d="M417.2,354.29c6.66,6.51,16.93,7,23.68,13.4,.94,.93,1.8,1.94,2.45,3.08-6.78-8.3-19.53-7.98-26.13-16.48h0Z" style="fill:#e0e0e0;"></path><path d="M402.63,335.13c5.08,5.27,7.03,12.93,4.18,19.78-1.96,5.03-.06,10.24,2.47,14.7,.82,1.55,1.73,3.04,2.61,4.57-2.1-2.81-4.13-5.72-5.54-9-.71-1.63-1.2-3.4-1.32-5.22-.28-3.63,1.7-6.89,2.13-10.34,.61-5.18-1.45-10.33-4.54-14.48h0Z" style="fill:#e0e0e0;"></path><path d="M397.61,329.98c4.87,1.55,14.63,4.71,19.48,6.3,6.45,2.27,12.68,5.7,17.39,10.71-10.45-9.16-24.63-11.21-36.87-17.01h0Z" style="fill:#e0e0e0;"></path></g><g><path d="M204.71,22.2c-.34,4.87-3.8,9.98-4.8,14.76-1.97,9.43-.34,10.12,.25,19.74,.39,6.35-3.34,18.82,1.94,27.51,5.48,9.03,14.78,18.22,16.78,28.59l1.15-.12s10.2-31.92,10.43-39.21c.23-7.29-1.77-17.68-7.39-23.91-5.62-6.22-10.08-5.88-12.67-12.29-2.58-6.41-3.17-9.1-4.05-11.91-.89-2.81-1.65-3.16-1.65-3.16Z" style="fill:#ebebeb;"></path><path d="M219.33,112.75c3.29-14.92,.65-30.75-5.11-44.74-4.65-10.49-8.14-21.7-8.88-33.22-.23-3.83-.22-7.68,.12-11.49-.41,11.49,1.62,22.9,5.42,33.7,1.24,3.61,2.74,7.1,4.25,10.63,5.72,14.13,8.28,30.25,4.19,45.12h0Z" style="fill:#e0e0e0;"></path><path d="M215.73,70.89c-1.84-7.66,3.32-14.75,3.48-22.3,.05-1.07-.05-2.15-.23-3.22,.4,1.02,.6,2.11,.72,3.2,.6,7.74-4.52,14.58-3.97,22.31h0Z" style="fill:#e0e0e0;"></path><path d="M220.33,90.41c-1.08-4.17-3.3-8.18-6.94-10.52-2.44-1.54-5.6-2-7.78-4.11-1.11-1.05-1.99-2.31-2.66-3.64-1.36-2.66-2.14-5.51-2.8-8.36,.53,1.36,1.02,2.74,1.59,4.08,1.55,3.96,3.87,7.91,8.13,9.31,5.87,1.75,9.87,7.22,10.46,13.24h0Z" style="fill:#e0e0e0;"></path><path d="M220.97,96.35c2.65-10.97,8.83-21.14,8.6-32.7,1.31,8.65-2.13,16.98-5.39,24.8-.78,1.97-2.4,5.94-3.21,7.9h0Z" style="fill:#e0e0e0;"></path></g><g><path d="M52.32,100.92c6.68,3.65,11.65,11.85,17.76,16.37,12.06,8.92,14.09,7.06,28.08,12.47,9.24,3.57,24.45,16.95,40.18,15.13,16.33-1.89,35.38-9.08,51.35-5.17l.57-1.71s-38.52-35.17-48.69-40.23c-10.17-5.06-26.17-8.98-38.62-5.08-12.45,3.9-14.87,10.44-25.61,9.94-10.74-.51-14.94-1.43-19.49-2.01s-5.54,.28-5.54,.28Z" style="fill:#e6e6e6;"></path><path d="M189.92,139.06c-18.88-14.54-43.04-21.16-66.59-22.13-11.91-.17-23.89-1.16-35.56-3.78-11.64-2.6-22.97-6.77-33.39-12.58,15.91,8.2,33.41,12.82,51.16,14.48,5.92,.59,11.84,.77,17.81,.89,23.67,1.06,48.06,7.88,66.56,23.12h0Z" style="fill:#e0e0e0;"></path><path d="M128.37,116.96c-13.55-3.08-20.39-18.15-33.98-21.17,1.69,.15,3.35,.6,4.95,1.19,11.21,4.35,17.6,16.07,29.04,19.98h0Z" style="fill:#e0e0e0;"></path><path d="M158.95,123.14c-6.59-1.35-13.79-.86-19.54,2.75-1.87,1.19-3.44,2.81-5.11,4.38-3.25,3.32-7.86,5.28-12.51,5.38-4.61,.24-9.15-.45-13.62-1.26,2.27,.19,4.53,.43,6.8,.54,6.65,.48,13.89-.2,18.65-5.38,1.66-1.52,3.3-3.18,5.3-4.41,5.93-3.66,13.49-3.94,20.03-1.99h0Z" style="fill:#e0e0e0;"></path><path d="M167.79,126.09c-6.73-5.75-12.95-12.08-19.16-18.36-6.18-6.23-13.41-11.57-21.5-15.04,8.47,2.76,15.91,8.13,22.21,14.34l18.45,19.07h0Z" style="fill:#e0e0e0;"></path></g><g><g><path d="M440.45,310.71c-.14,.1-13.94,10.03-27.21-3.21-14.68-14.65-2.64-26.66-2.64-26.66l29.85,29.86Z" style="fill:#e0e0e0;"></path><path d="M442.91,307.77s-2.81,8.45-17.02,1.41c-14.21-7.04-18.51-17.56-17.28-23.8,1.23-6.24,4.36-5.41,4.36-5.41,0,0,.2-1.77,4.56-2.58,4.36-.81,14.21,.24,22.74,10.41,7.55,9,7.59,17.6,2.65,19.99Z" style="fill:#ebebeb;"></path><path d="M443.04,307.74c-6.04-1.47-11.31-5.66-13.42-11.48-.61-1.68-1.02-3.45-1.7-5.14-.7-1.75-1.81-3.39-3.16-4.71-1.32-1.31-2.92-2.38-4.57-3.21-2.43-1.24-4.92-2.33-7.47-3.28,2.3,1.44,4.65,2.78,6.93,4.24,2.21,1.34,4.25,3.12,5.62,5.3,1.91,2.96,2.14,6.89,4.06,9.92,2.83,4.76,8.23,8.11,13.72,8.36h0Z" style="fill:#e0e0e0;"></path><g style="opacity:.3;"><path d="M413,284.59h0c.3-.55,1.13-.68,1.85-.35,2.36,1.09,4.84,2.82,6.36,4.6,.43,.51,.84,1.05,.85,1.65,0,.22-.06,.43-.2,.6-.46,.55-1.38,.39-2.16,.17-1.54-.43-3.07-1.05-4.33-1.96-1.27-.92-2.26-2.17-2.49-3.45-.08-.44-.07-.88,.13-1.25Z" style="fill:#fff;"></path></g></g><path d="M415.8,279.52c6.53-1.96,14.19,.43,18.64,5.54-5.47-4-11.85-6.03-18.64-5.54h0Z" style="fill:#fff; opacity:.3;"></path><path d="M436.41,287.06c1.23,.32,2,1.14,2.23,2.39-1.24-.32-2-1.14-2.23-2.39h0Z" style="fill:#fff; opacity:.3;"></path><path d="M425.93,295.23c1.42,5.09,4.55,9.25,9.05,12.01-5.14-1.38-9.14-6.69-9.05-12.01h0Z" style="fill:#fff; opacity:.3;"></path></g><g><g><path d="M92.39,340.12c.09,.16,8.25,15.06-6.5,26.61-16.34,12.79-26.78-.63-26.78-.63l33.28-25.98Z" style="fill:#e0e0e0;"></path><path d="M89.78,337.32s8.04,3.82-.68,17.07c-8.72,13.24-19.69,16.23-25.74,14.25-6.05-1.99-4.84-4.99-4.84-4.99,0,0-1.74-.41-2.01-4.84s1.97-14.07,13.11-21.3c9.86-6.4,18.39-5.38,20.16-.19Z" style="fill:#ebebeb;"></path><path d="M89.77,337.19c-2.2,5.81-7,10.53-13.03,11.92-1.74,.4-3.55,.59-5.31,1.06-1.83,.48-3.58,1.38-5.06,2.57-1.46,1.15-2.72,2.61-3.74,4.14-1.52,2.26-2.91,4.6-4.17,7.02,1.71-2.11,3.32-4.27,5.05-6.36,1.6-2.03,3.62-3.84,5.94-4.93,3.17-1.54,7.1-1.28,10.35-2.82,5.07-2.23,9.05-7.18,9.98-12.6h0Z" style="fill:#e0e0e0;"></path><g style="opacity:.3;"><path d="M63.12,364.18h-.01c-.49-.37-.53-1.21-.11-1.88,1.37-2.21,3.39-4.46,5.34-5.75,.56-.37,1.15-.7,1.74-.64,.22,.02,.42,.11,.57,.27,.49,.53,.22,1.42-.09,2.17-.62,1.48-1.41,2.92-2.48,4.06-1.07,1.15-2.43,1.98-3.73,2.05-.44,.03-.88-.04-1.23-.28Z" style="fill:#fff;"></path></g></g><path d="M58.43,360.77c-1.15-6.72,2.16-14.03,7.78-17.83-4.64,4.94-7.43,11.03-7.78,17.83h0Z" style="fill:#fff; opacity:.3;"></path><path d="M68.43,341.24c.47-1.18,1.37-1.85,2.65-1.92-.46,1.19-1.38,1.84-2.65,1.92h0Z" style="fill:#fff; opacity:.3;"></path><path d="M75.26,352.64c5.23-.78,9.73-3.39,13.03-7.52-2,4.93-7.76,8.25-13.03,7.52h0Z" style="fill:#fff; opacity:.3;"></path></g><g><g><path d="M102.64,166.99c-.03,.1-3.04,9.21-13.49,7.57-11.57-1.81-10.06-11.29-10.06-11.29l23.55,3.72Z" style="fill:#e0e0e0;"></path><path d="M102.79,164.83s1.52,4.79-7.31,6.3c-8.83,1.51-14.29-1.87-15.8-5.13-1.51-3.26,.19-3.92,.19-3.92,0,0-.5-.88,1.22-2.69,1.72-1.82,6.57-4.61,13.84-2.8,6.44,1.6,9.31,5.52,7.85,8.25Z" style="fill:#ebebeb;"></path><path d="M102.84,164.77c-3.25,1.33-7.04,1.17-9.94-.78-.84-.57-1.61-1.24-2.49-1.78-.9-.57-1.95-.95-3.01-1.1-1.04-.16-2.13-.12-3.15,.05-1.52,.24-3.02,.57-4.5,.98,1.53-.11,3.04-.27,4.57-.37,1.45-.12,2.98,.01,4.32,.55,1.86,.72,3.27,2.43,5.15,3.18,2.88,1.23,6.45,.97,9.05-.74h0Z" style="fill:#e0e0e0;"></path><g style="opacity:.3;"><path d="M81.43,164.18h0c-.04-.35,.29-.69,.73-.78,1.44-.28,3.15-.32,4.43-.01,.37,.09,.73,.2,.94,.47,.07,.1,.12,.22,.11,.34-.03,.4-.5,.64-.93,.8-.85,.31-1.75,.54-2.63,.54-.88,0-1.75-.24-2.29-.75-.18-.17-.32-.38-.36-.62Z" style="fill:#fff;"></path></g></g><path d="M81.03,160.93c2.1-3.29,6.66-4.84,10.35-3.66-3.86,.32-7.18,1.41-10.35,3.66h0Z" style="fill:#fff; opacity:.3;"></path><path d="M92.94,157.53c.7-.56,1.37-.43,1.81,.35-.7,.56-1.37,.42-1.81-.35h0Z" style="fill:#fff; opacity:.3;"></path><path d="M90.87,164.74c2.57,1.62,5.09,2.38,8.12,2.48-2.74,1.4-6.63,.21-8.12-2.48h0Z" style="fill:#fff; opacity:.3;"></path></g><g><g><path d="M435.97,242.4c.03,.1,2.61,9.34-6.98,13.8-10.62,4.94-14.65-3.77-14.65-3.77l21.63-10.03Z" style="fill:#e0e0e0;"></path><path d="M434.9,240.52s3.93,3.13-2.56,9.3-12.91,6.41-15.98,4.55c-3.07-1.87-2.02-3.36-2.02-3.36,0,0-.9-.45-.49-2.92s2.89-7.49,9.93-10.04c6.24-2.26,10.81-.61,11.11,2.47Z" style="fill:#ebebeb;"></path><path d="M434.91,240.45c-1.95,2.91-5.2,4.9-8.69,4.89-1.01,0-2.03-.13-3.06-.09-1.07,.03-2.15,.3-3.11,.76-.95,.44-1.83,1.09-2.59,1.8-1.13,1.05-2.19,2.16-3.19,3.33,1.21-.94,2.37-1.92,3.59-2.85,1.14-.91,2.48-1.65,3.9-1.95,1.94-.44,4.07,.2,6.05-.23,3.08-.58,5.9-2.79,7.1-5.66h0Z" style="fill:#e0e0e0;"></path><g style="opacity:.3;"><path d="M416.8,251.89h0c-.23-.27-.14-.74,.18-1.05,1.04-1.04,2.44-2.02,3.67-2.48,.35-.13,.72-.24,1.04-.13,.12,.04,.22,.12,.28,.22,.2,.35-.06,.81-.33,1.18-.53,.73-1.15,1.42-1.88,1.92-.73,.49-1.59,.78-2.32,.65-.25-.04-.48-.13-.64-.31Z" style="fill:#fff;"></path></g></g><path d="M414.65,249.42c-.09-3.9,2.83-7.73,6.56-8.81-3.03,2.42-5.18,5.18-6.56,8.81h0Z" style="fill:#fff; opacity:.3;"></path><path d="M422.65,239.95c.27-.85,.9-1.12,1.7-.72-.27,.85-.9,1.12-1.7,.72h0Z" style="fill:#fff; opacity:.3;"></path><path d="M424.95,247.09c3.04-.09,5.55-.86,8.13-2.47-1.49,2.69-5.39,3.87-8.13,2.47h0Z" style="fill:#fff; opacity:.3;"></path></g><g><g><path d="M378.96,358.88c.06,.08,5.59,7.93-1.96,15.34-8.36,8.21-15.07,1.35-15.07,1.35l17.03-16.69Z" style="fill:#e0e0e0;"></path><path d="M377.31,357.48s4.75,1.64,.7,9.62c-4.05,7.98-10.02,10.36-13.54,9.63-3.52-.73-3.03-2.49-3.03-2.49,0,0-1-.12-1.43-2.59-.43-2.47,.21-8.02,6-12.78,5.12-4.22,9.98-4.19,11.3-1.38Z" style="fill:#ebebeb;"></path><path d="M377.3,357.4c-.87,3.4-3.26,6.35-6.55,7.52-.95,.34-1.95,.55-2.91,.93-.99,.39-1.92,1-2.68,1.76-.75,.74-1.36,1.64-1.84,2.56-.71,1.37-1.34,2.77-1.9,4.2,.83-1.29,1.59-2.61,2.43-3.89,.77-1.24,1.79-2.38,3.02-3.14,1.68-1.06,3.9-1.17,5.63-2.24,2.7-1.57,4.62-4.6,4.8-7.7h0Z" style="fill:#e0e0e0;"></path><g style="opacity:.3;"><path d="M364.06,374.24h0c-.3-.18-.37-.65-.18-1.05,.63-1.33,1.62-2.72,2.63-3.56,.29-.24,.6-.47,.94-.47,.12,0,.24,.04,.34,.12,.31,.26,.21,.78,.08,1.22-.25,.87-.61,1.73-1.13,2.44-.53,.71-1.24,1.26-1.96,1.39-.25,.04-.5,.03-.71-.08Z" style="fill:#fff;"></path></g></g><path d="M361.21,372.63c-1.39-3.64,.08-8.23,3.23-10.5-2.05,3.29-3.15,6.61-3.23,10.5h0Z" style="fill:#fff; opacity:.3;"></path><path d="M365.58,361.03c-.03-.89,.48-1.36,1.36-1.25,.03,.89-.48,1.36-1.36,1.25h0Z" style="fill:#fff; opacity:.3;"></path><path d="M370.14,366.99c2.84-1.1,4.95-2.66,6.83-5.05-.5,3.04-3.79,5.45-6.83,5.05h0Z" style="fill:#fff; opacity:.3;"></path></g><g><g><g><path d="M443.92,330.2h-180.75c-3.23,0-5.86-2.63-5.86-5.86V61.06c0-3.23,2.63-5.86,5.86-5.86h180.75c3.23,0,5.86,2.63,5.86,5.86V324.34c0,3.23-2.63,5.86-5.86,5.86ZM263.17,55.45c-3.09,0-5.61,2.52-5.61,5.61V324.34c0,3.09,2.52,5.61,5.61,5.61h180.75c3.09,0,5.61-2.52,5.61-5.61V61.06c0-3.09-2.52-5.61-5.61-5.61h-180.75Z" style="fill:#e0e0e0;"></path><path d="M235.49,330.2H54.75c-3.23,0-5.86-2.63-5.86-5.86V61.06c0-3.23,2.63-5.86,5.86-5.86H235.49c3.23,0,5.86,2.63,5.86,5.86V324.34c0,3.23-2.63,5.86-5.86,5.86ZM54.75,55.45c-3.09,0-5.61,2.52-5.61,5.61V324.34c0,3.09,2.52,5.61,5.61,5.61H235.49c3.09,0,5.61-2.52,5.61-5.61V61.06c0-3.09-2.52-5.61-5.61-5.61H54.75Z" style="fill:#e0e0e0;"></path></g><rect x="0" y="391.27" width="500" height=".25" style="fill:#e0e0e0;"></rect></g><rect x="51.67" y="405.53" width="16.06" height=".25" style="fill:#e0e0e0;"></rect><rect x="170.35" y="402.82" width="53.53" height=".25" style="fill:#e0e0e0;"></rect><rect x="68.73" y="414.82" width="36.25" height=".25" style="fill:#e0e0e0;"></rect><rect x="378.35" y="402.69" width="43.19" height=".25" style="fill:#e0e0e0;"></rect><rect x="430.45" y="402.69" width="6.33" height=".25" style="fill:#e0e0e0;"></rect><rect x="316.21" y="408.92" width="53.89" height=".25" style="fill:#e0e0e0;"></rect></g></g><g id="freepik--Shadow--inject-81"><path d="M458.88,460.42c0,3.39-93.52,6.13-208.88,6.13s-208.88-2.75-208.88-6.13,93.52-6.13,208.88-6.13,208.88,2.75,208.88,6.13Z" style="fill:#f5f5f5;"></path></g><g id="freepik--Coffee_cup_2--inject-81"><g><g><path d="M273.64,139.75l-44.64,209.85s23.3,36.85,76.42,42.09c0,0,14.25,2.85,30.76-4.33l92.35-196.74-154.9-50.87Z" style="fill:#407BFF;"></path><path d="M273.64,139.75l-44.64,209.85s23.3,36.85,76.42,42.09c0,0,14.25,2.85,30.76-4.33l92.35-196.74-154.9-50.87Z" style="fill:#fff; opacity:.5;"></path><path d="M290,143.02s15.67,76.74,119.56,89.35l14.28-30.42c-103.89-12.62-124.14-104.5-124.14-104.5" style="fill:#fff; opacity:.5;"></path><path d="M273.01,142.75s32.12,42.12,81.41,54.18c49.29,12.06,72.09-1.96,72.09-1.96l4.8-9.01-158.29-43.22Z" style="opacity:.3;"></path><path d="M439.29,184.28l2.08-17.29-7.74-11.98,4.65-17.43-73.56-22.95-73.73-23.12-5.71,15.31-13.25,5.29-8.33,15.3c4.28,27.75,80.11,51.36,80.11,51.36h0c9.03,3.04,77.01,25.06,95.47,5.52Z" style="fill:#263238;"></path><path d="M285.29,106.82s23.96,24.23,79.09,39.7c55.13,15.47,69.26,8.48,69.26,8.48l4.42-16.57-147.06-46.95-5.71,15.34Z" style="opacity:.3;"></path><path d="M438.06,138.43c-2.68,8.04-38.11,5.58-78.6-7.93-40.49-13.51-71.14-30.98-68.46-39.02s37.68-3.6,78.18,9.91,71.57,29,68.88,37.04Z" style="fill:#263238;"></path><path d="M343.82,178.76h0c9.03,3.04,77.01,25.06,95.47,5.52l1.94-16.17c-11.15,4.35-34.31,7.94-78.41-4.01-77.28-20.94-90.78-51.99-90.78-51.99l-8.33,15.3c4.28,27.75,80.11,51.36,80.11,51.36Z" style="opacity:.3;"></path><ellipse cx="328.98" cy="107.87" rx="3.37" ry="15.19" transform="translate(113.27 378.66) rotate(-69.61)" style="opacity:.3;"></ellipse><path d="M367.33,111.38c28.33,8.85,51.49,18.61,57.78,24.02,.53-.22,.87-.51,.98-.87,1.29-4.11-25.32-16.09-59.43-26.74-34.11-10.66-62.79-15.96-64.08-11.84-.22,.7,.37,1.62,1.65,2.72,5.45-2.25,32.02,3.01,63.1,12.72Z" style="opacity:.3;"></path><path d="M235.1,348.63c24.87,25.88,62.91,42.04,98.68,32.67l-6.62,1.7-6.75,1.11c-32.04,3.54-64.28-11.71-85.32-35.48h0Z"></path><path d="M248.32,258.81l-9.08,42.67c15.48,25.45,45.94,55.43,108.27,63l14.89-31.72c-65.24-7.92-97.67-45.06-114.09-73.96Z" style="fill:#fff; opacity:.5;"></path></g><path d="M259.33,207.06s15.67,76.74,119.56,89.35l14.28-30.42c-103.89-12.62-124.14-104.5-124.14-104.5" style="fill:#fff; opacity:.5;"></path><path d="M285.03,152.19l-52.52,202.08c6.3,8.54,14.68,15.59,24.78,21.41l57.97-207.69c-11.7-5.08-21.92-10.33-30.23-15.8Z" style="fill:#fff; opacity:.5;"></path></g></g><g id="freepik--Coffee_cup_1--inject-81"><g><path d="M82.33,256.58l82.05,198.24s40.07,17.17,86.83-8.59c0,0,13.36-5.72,22.9-20.99l-35.3-214.46-156.48,45.8Z" style="fill:#407BFF;"></path><path d="M83.5,259.41s50.33,16.53,97.78-1.45c47.45-17.97,58.31-42.44,58.31-42.44l-1.15-10.14-154.94,54.03Z" style="opacity:.3;"></path><path d="M244.08,199.47l-8.08-15.43-13.16-5.5-6.04-17-73.62,22.75-73.86,22.7,3.96,15.85-7.93,11.86,1.8,17.32c19.24,20.45,95.11-3.04,95.11-3.04h0c9.17-2.61,77.66-22.96,81.81-49.52Z" style="fill:#263238;"></path><path d="M73.28,222.84s33.47,6.4,87.67-12.07c54.2-18.47,61.89-32.23,61.89-32.23l-5.74-16.16-147.8,44.59,3.98,15.87Z" style="opacity:.3;"></path><path d="M217.09,162.38c2.34,8.15-28.25,26.18-69.27,37.98-41.03,11.8-76.18,14.75-78.52,6.61s29.02-24.31,70.04-36.11c41.03-11.8,75.41-16.62,77.75-8.48Z" style="fill:#263238;"></path><path d="M162.26,248.99h0c9.17-2.61,77.66-22.96,81.81-49.52l-7.56-14.43c-6.73,9.9-23.79,25.98-66.9,41.1-75.55,26.51-104.27,8.56-104.27,8.56l1.8,17.32c19.24,20.45,95.11-3.04,95.11-3.04Z" style="opacity:.3;"></path><path d="M124.61,195.26c.45,1.8-5.78,4.92-13.91,6.97-8.14,2.04-15.1,2.24-15.55,.44s5.78-4.92,13.91-6.97,15.1-2.24,15.55-.44Z" style="opacity:.3;"></path><path d="M143.48,180.13c28.37-8.75,52.98-13.82,61.23-12.92,.31-.48,.43-.91,.31-1.28-1.27-4.12-29.98,1.08-64.12,11.61-34.14,10.53-60.79,22.41-59.52,26.53,.21,.7,1.22,1.13,2.9,1.31,3.22-4.94,28.1-15.65,59.21-25.25Z" style="opacity:.3;"></path><path d="M104,308.92s72.57,13.38,143.61-44.66l10.96,66.56s-53.5,59.11-130.09,37.24l-24.48-59.14Z" style="fill:#fff; opacity:.3;"></path><g><path d="M164.09,346.76l.47-.35c.59-.36,1.01-.54,1.26-.55,.55,0,1.14,.48,1.79,1.45,.4,.61,.6,1.1,.6,1.47s-.11,.68-.34,.93c-.23,.25-.51,.47-.82,.67-.31,.2-.61,.39-.9,.57-.29,.18-.88,.42-1.77,.71-.89,.3-1.76,.45-2.6,.46-.84,.01-1.68-.08-2.54-.29-.86-.21-1.74-.56-2.66-1.07-.91-.5-1.74-1.13-2.47-1.86-.73-.74-1.34-1.69-1.83-2.85-.48-1.16-.74-2.43-.76-3.81-.02-1.37,.19-2.62,.63-3.75,.44-1.12,1.01-2.06,1.71-2.8,.7-.74,1.51-1.37,2.41-1.87,1.71-.98,3.44-1.48,5.18-1.51,.83-.01,1.67,.1,2.53,.34,.86,.24,1.51,.49,1.95,.75l.64,.36c.32,.19,.57,.34,.75,.46,.46,.36,.7,.78,.71,1.24,0,.47-.17,.96-.53,1.48-.67,.96-1.28,1.45-1.83,1.46-.32,0-.77-.18-1.36-.56-.75-.59-1.74-.87-2.97-.85-1.15,.02-2.27,.43-3.36,1.24-.52,.4-.95,.95-1.29,1.66-.34,.71-.5,1.51-.49,2.4,.01,.89,.2,1.68,.57,2.38,.36,.7,.82,1.25,1.37,1.64,1.09,.76,2.21,1.13,3.37,1.11,.55,0,1.06-.09,1.54-.24,.48-.15,.83-.29,1.04-.44Z" style="fill:#fff;"></path><path d="M171.54,338.88c1.18-1.64,2.71-2.64,4.57-3.01,1.87-.37,3.65-.03,5.35,1.03,1.7,1.05,2.75,2.62,3.17,4.69,.28,1.43,.17,2.78-.36,4.04-.52,1.26-1.26,2.26-2.22,3-.96,.74-2.01,1.22-3.15,1.45-1.14,.23-2.3,.17-3.48-.18-1.18-.35-2.25-1-3.2-1.95-.95-.95-1.57-2.12-1.84-3.5-.41-2.07-.03-3.93,1.16-5.56Zm4.63,6.34c.64,.31,1.24,.41,1.81,.3,.57-.11,1.1-.44,1.58-.99,.48-.54,.64-1.24,.47-2.09-.17-.85-.56-1.42-1.18-1.73-.62-.31-1.24-.4-1.86-.28-.62,.12-1.16,.45-1.61,.99-.45,.54-.59,1.23-.43,2.06,.17,.84,.57,1.41,1.2,1.73Z" style="fill:#fff;"></path><path d="M201,328.35c1.14-.43,1.92-.37,2.36,.19,.22,.28,.42,.67,.61,1.18,.19,.51,.29,.94,.3,1.28,0,.35-.08,.63-.26,.85-.27,.33-.74,.62-1.4,.86l-1.62,.5,2.49,6.63c.24,.63,.33,1.12,.29,1.49-.04,.37-.2,.66-.49,.88-.28,.22-.68,.43-1.19,.62-.51,.19-.94,.29-1.28,.3-.35,0-.63-.08-.85-.27-.22-.19-.38-.38-.48-.57-.1-.19-.22-.47-.36-.85l-2.46-6.55c-.77,.35-1.41,.62-1.93,.81l-2.46,.81,2.49,6.63c.24,.63,.33,1.12,.29,1.48-.04,.37-.21,.66-.49,.88-.28,.22-.68,.43-1.19,.62-.51,.19-.94,.29-1.28,.3-.35,0-.63-.08-.85-.27-.22-.19-.38-.38-.48-.57-.1-.19-.22-.47-.36-.85l-2.46-6.55c-.3,.17-.62,.32-.99,.46-.36,.14-.72,.11-1.06-.08-.34-.19-.64-.62-.9-1.3-.25-.68-.4-1.18-.43-1.52-.03-.33,0-.6,.1-.78,.18-.31,.47-.54,.87-.69l.85-.21-.49-1.31c-.48-1.27-.46-2.59,.06-3.96,.52-1.37,1.64-2.38,3.35-3.02,.38-.14,.67-.24,.87-.28,.2-.05,.44-.06,.73-.04,.53,.06,1,.62,1.39,1.68,.3,.79,.37,1.41,.21,1.84-.13,.37-.43,.65-.92,.85-.14,.07-.37,.17-.68,.29-.61,.23-.84,.55-.68,.96l.51,1.36c.87-.4,1.62-.72,2.26-.96l2.11-.68-.49-1.31c-.48-1.27-.46-2.59,.06-3.96,.52-1.37,1.64-2.38,3.35-3.02,.4-.15,.69-.25,.88-.29,.19-.04,.43-.05,.72-.03,.53,.06,1,.62,1.39,1.68,.3,.79,.37,1.41,.21,1.84-.13,.37-.42,.65-.9,.84-.16,.08-.39,.18-.71,.3-.61,.23-.84,.55-.68,.96l.51,1.36,1.55-.75Z" style="fill:#fff;"></path><path d="M218.5,325.23c.51,.95,.65,1.79,.43,2.5-.23,.71-.63,1.22-1.2,1.53l-5.52,2.96c.23,.44,.69,.66,1.36,.68,.67,.02,1.26-.11,1.77-.38,.9-.48,1.56-.96,1.97-1.42l.21-.23c.28-.37,.55-.62,.79-.75,.5-.27,1.11-.15,1.84,.36,.43,.31,.72,.61,.88,.91,.74,1.38-.54,2.96-3.85,4.73-1.15,.62-2.28,.97-3.38,1.05-1.1,.08-2.08-.07-2.93-.45-1.65-.73-2.89-1.88-3.73-3.43-1.05-1.95-1.26-3.86-.62-5.71,.64-1.85,1.9-3.28,3.79-4.3,2.16-1.16,4.15-1.25,5.97-.27,.96,.52,1.7,1.26,2.21,2.22Zm-4.54,3.32c.59-.32,.75-.72,.48-1.22-.19-.36-.48-.57-.87-.64-.39-.07-.84,.03-1.34,.3-.5,.27-.89,.75-1.17,1.42-.28,.68-.29,1.25-.04,1.71l2.93-1.57Z" style="fill:#fff;"></path><path d="M230.96,315.61c.68,.84,.97,1.64,.88,2.38-.09,.74-.39,1.32-.9,1.73l-4.88,3.93c.31,.38,.8,.52,1.46,.42,.66-.1,1.22-.34,1.67-.7,.8-.64,1.35-1.23,1.67-1.75l.16-.26c.21-.42,.42-.71,.64-.89,.44-.35,1.06-.35,1.88,.01,.48,.23,.82,.47,1.03,.73,.98,1.22,.01,3.01-2.91,5.36-1.01,.82-2.06,1.37-3.13,1.66-1.07,.29-2.06,.32-2.96,.1-1.76-.42-3.19-1.31-4.3-2.68-1.39-1.73-1.95-3.56-1.66-5.5s1.26-3.58,2.93-4.93c1.91-1.54,3.85-1.99,5.82-1.37,1.04,.34,1.9,.93,2.58,1.77Zm-3.85,4.11c.52-.42,.6-.85,.25-1.29-.25-.31-.58-.47-.97-.47-.4,0-.82,.18-1.26,.54-.45,.36-.74,.9-.89,1.61-.15,.72-.05,1.28,.28,1.69l2.59-2.09Z" style="fill:#fff;"></path></g><path d="M168.86,450.56c35.15,7.24,75.66-.98,99.83-28.96l-4.49,5.15-4.94,4.74c-24.41,21.06-59.61,26.75-90.41,19.08h0Z"></path></g></g><g id="freepik--Coffee_beans--inject-81"><g><g><path d="M242.15,112.39c.11,.16,10.95,15.06-3.33,29.5-15.81,16-29.08,3.01-29.08,3.01l32.41-32.52Z" style="fill:#407BFF;"></path><path d="M242.15,112.39c.11,.16,10.95,15.06-3.33,29.5-15.81,16-29.08,3.01-29.08,3.01l32.41-32.52Z" style="opacity:.3;"></path><path d="M238.95,109.73s9.17,3,1.62,18.44c-7.55,15.44-18.93,20.16-25.71,18.86-6.77-1.3-5.89-4.69-5.89-4.69,0,0-1.92-.2-2.82-4.93-.9-4.72,.19-15.4,11.16-24.7,9.72-8.24,19.03-8.32,21.65-2.98Z" style="fill:#407BFF;"></path><path d="M238.93,109.59c-1.57,6.55-6.08,12.29-12.37,14.61-1.82,.67-3.73,1.12-5.57,1.87-1.9,.77-3.66,1.98-5.09,3.45-1.41,1.43-2.56,3.18-3.45,4.97-1.33,2.64-2.5,5.35-3.52,8.12,1.55-2.5,2.99-5.05,4.55-7.53,1.44-2.4,3.36-4.63,5.71-6.12,3.2-2.09,7.45-2.36,10.73-4.46,5.15-3.1,8.75-8.97,8.99-14.92h0Z" style="opacity:.3;"></path><g style="opacity:.3;"><path d="M213.99,142.28h-.01c-.58-.33-.73-1.23-.38-2.01,1.17-2.56,3.03-5.26,4.95-6.92,.55-.47,1.14-.92,1.79-.93,.24,0,.47,.06,.65,.22,.6,.5,.43,1.5,.2,2.34-.46,1.67-1.12,3.33-2.11,4.71-.99,1.38-2.34,2.46-3.73,2.72-.47,.09-.96,.08-1.36-.14Z" style="fill:#fff;"></path></g></g><path d="M208.48,139.27c-2.1-7.08,.44-15.34,5.91-20.24-4.35,5.91-6.53,12.89-5.91,20.24h0Z" style="fill:#fff; opacity:.3;"></path><path d="M216.54,116.89c.38-1.3,1.26-2.13,2.58-2.43-.38,1.3-1.26,2.13-2.58,2.43h0Z" style="fill:#fff; opacity:.3;"></path><path d="M225.45,128.2c5.52-1.5,10.06-4.96,12.97-9.88-1.53,5.55-7.22,9.88-12.97,9.88h0Z" style="fill:#fff; opacity:.3;"></path></g><g><g><path d="M195.01,107.03c-.11,.1-11,10.04-23.75-.02-14.12-11.14-4.98-22.85-4.98-22.85l28.73,22.88Z" style="fill:#407BFF;"></path><path d="M195.01,107.03c-.11,.1-11,10.04-23.75-.02-14.12-11.14-4.98-22.85-4.98-22.85l28.73,22.88Z" style="opacity:.3;"></path><path d="M196.83,104.25s-1.57,7.56-14.52,2.92c-12.95-4.63-17.71-13.26-17.28-18.76,.43-5.5,3.21-5.1,3.21-5.1,0,0,0-1.55,3.67-2.68,3.67-1.14,12.26-1.22,20.63,6.67,7.41,6.99,8.31,14.39,4.29,16.95Z" style="fill:#407BFF;"></path><path d="M196.94,104.22c-5.35-.66-10.31-3.74-12.71-8.53-.69-1.39-1.22-2.87-1.98-4.26-.78-1.44-1.9-2.74-3.2-3.74-1.27-1-2.76-1.76-4.26-2.3-2.22-.82-4.47-1.51-6.77-2.08,2.13,1.01,4.28,1.92,6.39,2.95,2.04,.93,3.98,2.26,5.37,4,1.95,2.36,2.54,5.72,4.5,8.14,2.92,3.82,7.9,6.16,12.66,5.82h0Z" style="opacity:.3;"></path><g style="opacity:.3;"><path d="M168.74,87.29h0c.2-.5,.91-.7,1.56-.49,2.14,.7,4.45,1.94,5.94,3.32,.43,.39,.83,.82,.9,1.34,.03,.19,0,.38-.11,.54-.34,.52-1.15,.47-1.85,.36-1.37-.22-2.75-.59-3.93-1.26-1.18-.66-2.16-1.64-2.49-2.72-.11-.37-.15-.75-.01-1.09Z" style="fill:#fff;"></path></g></g><path d="M170.64,82.64c5.4-2.44,12.32-1.13,16.61,2.9-5.17-2.81-10.79-3.9-16.61-2.9h0Z" style="fill:#fff; opacity:.3;"></path><path d="M189.15,87.07c1.15,.08,1.9,.71,2.16,1.84-1.15-.08-1.9-.71-2.16-1.84h0Z" style="fill:#fff; opacity:.3;"></path><path d="M180.95,95.16c1.83,4.22,4.88,7.41,9,9.44-4.6-.57-8.64-4.82-9-9.44h0Z" style="fill:#fff; opacity:.3;"></path></g><g><g><path d="M275.49,76.46c0,.13,.86,12.34-12.27,15.45-14.54,3.44-17.45-8.55-17.45-8.55l29.72-6.89Z" style="fill:#407BFF;"></path><path d="M275.49,76.46c0,.13,.86,12.34-12.27,15.45-14.54,3.44-17.45-8.55-17.45-8.55l29.72-6.89Z" style="opacity:.3;"></path><path d="M274.63,73.84s4.11,4.92-5.59,10.96c-9.7,6.03-17.77,4.68-21.13,1.56-3.36-3.12-1.66-4.72-1.66-4.72,0,0-1.01-.79,.15-3.77,1.16-2.98,5.53-8.61,14.99-9.98,8.38-1.22,13.65,2.02,13.24,5.95Z" style="fill:#407BFF;"></path><path d="M274.66,73.75c-3.19,3.14-7.75,4.78-12.12,3.87-1.26-.26-2.5-.69-3.8-.91-1.34-.24-2.76-.18-4.08,.15-1.3,.31-2.57,.89-3.69,1.58-1.68,1.02-3.29,2.13-4.84,3.33,1.76-.86,3.46-1.79,5.22-2.64,1.66-.84,3.52-1.42,5.37-1.43,2.54-.05,5.03,1.3,7.62,1.27,3.99,.07,8.09-1.97,10.32-5.24h0Z" style="opacity:.3;"></path><g style="opacity:.3;"><path d="M249.1,83.37h0c-.21-.39,.02-.96,.49-1.27,1.56-1.03,3.56-1.89,5.22-2.15,.48-.07,.96-.11,1.33,.11,.14,.08,.24,.2,.29,.35,.16,.49-.29,.99-.72,1.39-.85,.78-1.8,1.48-2.85,1.91s-2.18,.56-3.06,.22c-.3-.12-.57-.29-.72-.56Z" style="fill:#fff;"></path></g></g><path d="M247.05,79.73c1.08-4.82,5.59-8.73,10.46-9.32-4.46,2.04-7.99,5.05-10.46,9.32h0Z" style="fill:#fff; opacity:.3;"></path><path d="M259.48,69.97c.62-.82,1.43-.98,2.31-.46-.62,.82-1.43,.98-2.31,.46h0Z" style="fill:#fff; opacity:.3;"></path><path d="M260.51,79.48c3.74,.87,7.27,.54,10.79-.99-2.67,2.8-7.65,3.26-10.79,.99h0Z" style="fill:#fff; opacity:.3;"></path></g></g></svg>
